<?xml version="1.0" encoding="utf-8"?>
<!-- Generator: Adobe Illustrator 22.1.0, SVG Export Plug-In . SVG Version: 6.00 Build 0)  -->
<svg version="1.1" id="圖層_1" xmlns="http://www.w3.org/2000/svg" xmlns:xlink="http://www.w3.org/1999/xlink" x="0px" y="0px"
	 viewBox="0 0 120 42" style="enable-background:new 0 0 120 42;" xml:space="preserve">
<style type="text/css">
	.st0{fill:#231815;}
	.st1{fill:url(#SVGID_1_);}
	.st2{fill:#084071;}
	.st3{fill:#073E70;}
	.st4{fill:#073E71;}
	.st5{fill:#073E6F;}
	.st6{fill:url(#SVGID_2_);}
	.st7{fill:#093C64;}
</style>
<title>大中華lp03切版</title>
<g>
	<g>
		<path class="st0" d="M37.4,38.7c0.7-0.3,1.2-0.6,1.4-0.9c0.2-0.3,0.3-0.6,0.4-0.9l0.1-2.4c0-0.1,0-0.2-0.1-0.2H38l0.1-1.2h2.1
			c0.2,0,0.3,0.1,0.2,0.3l-0.2,3.3c0,0.3,0.2,0.6,0.4,0.8c0.4,0.7,1.2,1,2.5,1h1l0.1-1.4h-3.1l0.1-1h3.1l0-0.8h-2.6l0.1-1h2.6l0-0.9
			h-3l0.1-1H43L42.6,31h-1.5l0.1-1h3.4l0-0.9h-2.9l0.1-1.1h2.9l0-0.8h1l0,0.8h3L48.6,29h-3l0,0.9h3.5L49,31h-1.7l-0.4,1.4h1.8
			l-0.1,1h-3.2l0,0.9h2.8l-0.1,1h-2.8l0,0.8h3.4l-0.1,1h-3.4l-0.1,1.4l3.6-0.2l-0.3,1.3l-5.7,0c-1.5-0.1-2.5-0.6-2.9-1.6
			c-0.2,0.5-1.1,1.4-2,1.8L37.4,38.7z M40,32.3c-0.8-0.6-1.4-1-1.9-1.3l0.6-1c0.6,0.3,1.3,0.7,2,1.3L40,32.3z M40.4,29.8
			c-0.7-0.6-1.4-1-1.9-1.3l0.6-1c0.6,0.3,1.2,0.7,1.9,1.3L40.4,29.8z M44.1,32.4h1.8l0.5-1.4h-2.6L44.1,32.4z"/>
		<path class="st0" d="M66.1,36.4c-0.9-1-1.9-2.1-3.2-3.3c-0.7,1.4-1.7,2.5-3,3.4l-0.7-0.9c2-1.1,3.1-2.9,3.5-5.6h-3.3
			c-0.1,0-0.1,0-0.1,0.1l-0.5,9.5h-1.1l0.5-10.4c0-0.3,0.1-0.4,0.4-0.4h4.1l0.1-1.4h1.1l-0.1,1.4h4.4c0.3,0,0.4,0.1,0.4,0.4
			l-0.5,9.1c-0.1,1.5-1.4,1.5-1.9,1.5c-0.5,0-1-0.1-1.7-0.2l0-1.4c0.8,0.2,1.3,0.4,1.7,0.4c0.3,0,0.8-0.2,0.8-0.7l0.4-7.8
			c0-0.1,0-0.1-0.1-0.1h-3.6c-0.1,0.7-0.2,1.4-0.5,2c1.2,1,2.4,2.2,3.6,3.4L66.1,36.4z"/>
		<path class="st0" d="M80,36.3l-0.6-1.1h0.5l0.9-1l0-0.1L80.7,34h-1.2c-0.6,0.5-1.2,1-1.9,1.4l-0.6-0.9c1.3-0.8,2.4-1.6,3.3-2.6
			h-3.1l0.1-1h2.3l0.1-1.4h-1.9l0.1-1.1h1.9l0.1-1.2h1l-0.1,1.2h1.9l0,0.6l0.8-1.5l0.8,0.5c-0.5,0.9-1.1,1.9-1.7,2.8h1l-0.1,1h-1.7
			l-0.4,0.4l-0.7,0.7h1.5l0.6,0.7l-2,1.8l0.2,0.4c1-0.3,1.7-0.5,2.2-0.7l0.2,1.1c-0.5,0.2-1.2,0.4-2.1,0.7c0.1,0.5,0.2,0.9,0.2,1.3
			c0,0.7-0.6,1.5-1.8,1.5c-0.5,0-1-0.1-1.6-0.4l0.1-1.2c0.7,0.4,1.1,0.6,1.5,0.6c0.2,0,0.8-0.2,0.8-0.9c0-0.2,0-0.4-0.1-0.7l-3,0.6
			l-0.2-1.1L80,36.3z M82,30.1l0.4-0.6h-1.6l-0.1,1.4h0.7L82,30.1z M82,38.9c1.3-0.7,2.4-1.6,3.2-2.7c-0.3-0.9-0.6-2-0.7-3.2
			c-0.2,0.4-0.4,0.8-0.6,1.2l-1-0.3c1.1-2.1,1.7-4.2,1.8-6.5l1,0l-0.2,1.3h3.3l-0.1,1.1H88l0,0.8c-0.1,1.7-0.5,3.4-1.3,5l-0.5,0.8
			c0.4,0.9,1.2,1.8,2.1,2.9l-1,0.6c-0.8-1-1.4-1.9-1.8-2.6c-0.8,1-1.7,1.8-2.9,2.6L82,38.9z M85.4,29.7c0,0.4-0.1,0.7-0.1,1.1
			c0,0.8,0,1.5,0.1,2.2c0.1,0.8,0.2,1.5,0.4,2.1c0.7-1.3,1.1-2.9,1.2-4.7l0-0.8H85.4z"/>
		<path class="st0" d="M107.6,32.7c-0.3-0.4-0.7-0.9-1.1-1.4l-9.1,0.4l-0.2-1.2l1.8-0.1c0.5-0.4,1.1-0.9,1.6-1.5h-3.3l0.1-1.1h5
			l0-0.7h1.1l0,0.7h4.9l-0.1,1.1h-2.4c1,0.9,1.9,1.9,2.6,2.9L107.6,32.7z M98.8,37.6l-0.1,2.1h-1l0.4-7c0-0.3,0.1-0.4,0.4-0.4h8.4
			c0.2,0,0.4,0.1,0.3,0.4l-0.3,5.6c-0.1,1.1-0.8,1.5-1.9,1.5c-0.4,0-0.8,0-1.3-0.1l-0.1-1.3c0.6,0.2,1,0.2,1.4,0.2
			c0.8,0,0.9-0.5,0.9-1H98.8z M98.8,36.5h7l0.1-1h-7L98.8,36.5z M98.9,34.4h7l0-0.9c0-0.1,0-0.1-0.1-0.1H99c-0.1,0-0.1,0-0.1,0.1
			L98.9,34.4z M104.6,29.5L105,29h-3.1l-1.4,1.4l4.9-0.2L104.6,29.5z"/>
	</g>
	<g>
		<linearGradient id="SVGID_1_" gradientUnits="userSpaceOnUse" x1="14.2329" y1="-2.7766" x2="26.6448" y2="18.7214">
			<stop  offset="0" style="stop-color:#FFFFFF"/>
			<stop  offset="0" style="stop-color:#FCF8FA"/>
			<stop  offset="0.1005" style="stop-color:#F4BFD0"/>
			<stop  offset="0.1693" style="stop-color:#F09BB6"/>
			<stop  offset="0.2646" style="stop-color:#EC7DA2"/>
			<stop  offset="0.3016" style="stop-color:#E96091"/>
			<stop  offset="0.3968" style="stop-color:#E5277C"/>
			<stop  offset="1" style="stop-color:#66183E"/>
			<stop  offset="1" style="stop-color:#B10E69"/>
		</linearGradient>
		<polygon class="st1" points="5.7,2.2 5.7,8.2 14.3,6.6 12.7,22.7 19.8,22.7 20.4,5 33.7,2.8 		"/>
		<polygon class="st2" points="88.2,8 93,8 95.1,17.2 98.3,8 103.8,8 105.3,16.4 108.8,8 114.3,8 107.5,22.3 102.2,22 100.8,13.4 
			97.1,22.3 92,22.3 		"/>
		<path class="st3" d="M86.1,18.8l-0.9,3.5c0,0,0.4,0.3-3.2,0.6c-3.5,0.3-4.3-2.1-4.3-2.1l0.1-2.4l0.6-6.9h-1.9V8h2.3V5l5-0.9
			l-0.4,3.7h3.2l-0.3,3.3l-3.2,0.2l-0.4,6.3C82.8,17.6,83,19.5,86.1,18.8z"/>
		<path class="st4" d="M50,2.6l-0.4,5.9c0,0-3.8-0.7-6.5,0c-2.7,0.7-3.7,3.2-4,3.9c-0.3,0.7-1.2,3-1.4,5.2c-0.2,2.1,1.1,4.1,2.5,4.7
			c1.4,0.6,5.1,0.7,6.5,0c1.4-0.7,1.9-1.7,1.9-1.7v1.7h4.2l1.6-19.7H50z M48.8,15.3c-0.7,3.1-2.9,3.4-2.9,3.4c-0.2,0-0.4,0-0.6,0
			c-0.9,0-2-0.4-2.4-1.2c-0.6-1.2,0.2-3.1,0.9-4.1c1.2-1.6,3-2.1,5-1.9C49,11.5,48.8,15.3,48.8,15.3z"/>
		<path class="st5" d="M65.1,21L65,22.2h4.7l1.2-13.7h-4.6l-0.7,9.9c0,0-4.1,2-5.4,0l0.5-9.9h-4.7v0.3l-0.8,9.5c0,0-0.7,3.7,3.5,4.5
			c0,0,2.5,0.8,5-1.1C63.6,21.7,65.1,20.7,65.1,21z"/>
		<linearGradient id="SVGID_2_" gradientUnits="userSpaceOnUse" x1="22.8955" y1="10.6669" x2="37.0366" y2="20.5686">
			<stop  offset="6.878310e-02" style="stop-color:#E51373"/>
			<stop  offset="0.3016" style="stop-color:#043E71"/>
		</linearGradient>
		<path class="st6" d="M37.1,16.2v-3.3c0,0-0.5-4-3.4-4.6c-2.8-0.7-6.8,0-7.6,0.2c-0.8,0.2-3.4,1.9-4.2,3.7C21.1,14,21,16.6,21,16.8
			c0,0,0.2,4.6,4.6,5.4s10.7-0.4,10.7-0.6c0-0.2,0.2-4,0.2-4s-2.7,1.5-3.3,1.5c0,0-4.8,0.9-6.8-0.8c0,0-0.4-0.2-0.3-2.1H37.1z
			 M29.5,10.7c2.7,0.1,3.2,2.5,3.2,2.5h-5.9h-0.4C26.4,13.2,26.8,10.7,29.5,10.7z"/>
		<path class="st7" d="M73.8,19c0,0-1.4,0.1-1.8,1.3c-0.4,1.2,0.5,2,0.9,2c0.5,0.1,2.5,0.2,2.2-2.9C75.1,19.5,74.5,18.9,73.8,19z"/>
	</g>
</g>
</svg>
